<?xml version="1.0" encoding="UTF-8"?>
<svg xmlns="http://www.w3.org/2000/svg" xmlns:xlink="http://www.w3.org/1999/xlink" width="216pt" height="216pt" viewBox="0 0 216 216">
<defs>
<g>
<g id="glyph-0-0">
<path d="M 6.28125 -2.625 L 6.609375 0 L 7.84375 0 L 6.625 -8.75 L 5.1875 -8.75 L 0.203125 0 L 1.390625 0 L 2.875 -2.625 Z M 6.171875 -3.5625 L 3.390625 -3.5625 L 5.6875 -7.5625 Z M 6.171875 -3.5625 "/>
</g>
<g id="glyph-0-1">
<path d="M 0.953125 0 L 4.90625 0 C 5.890625 0 6.65625 -0.34375 7.28125 -1.046875 C 7.796875 -1.625 8.0625 -2.3125 8.0625 -3.09375 C 8.0625 -3.828125 7.734375 -4.25 6.90625 -4.609375 C 7.765625 -4.984375 8.328125 -5.65625 8.484375 -6.484375 C 8.515625 -6.640625 8.53125 -6.8125 8.53125 -7.015625 C 8.53125 -7.46875 8.40625 -7.8125 8.09375 -8.140625 C 7.6875 -8.5625 7.1875 -8.75 6.359375 -8.75 L 2.8125 -8.75 Z M 3.125 -4.984375 L 3.734375 -7.765625 L 5.890625 -7.765625 C 6.921875 -7.765625 7.375 -7.4375 7.375 -6.734375 C 7.375 -6.28125 7.21875 -5.859375 6.921875 -5.53125 C 6.5625 -5.140625 6.09375 -4.984375 5.296875 -4.984375 Z M 2.28125 -0.984375 L 2.921875 -4 L 5.640625 -4 C 6.46875 -4 6.90625 -3.625 6.90625 -2.90625 C 6.90625 -2.4375 6.78125 -2.03125 6.5 -1.671875 C 6.125 -1.1875 5.671875 -0.984375 5 -0.984375 Z M 2.28125 -0.984375 "/>
</g>
<g id="glyph-0-2">
<path d="M 9.234375 -6.03125 C 9.21875 -6.546875 9.15625 -6.859375 9.03125 -7.21875 C 8.78125 -7.9375 8.15625 -8.53125 7.421875 -8.75 C 7.109375 -8.84375 6.75 -8.890625 6.390625 -8.890625 C 5.265625 -8.890625 4.25 -8.515625 3.46875 -7.8125 C 2.5 -6.9375 1.796875 -5.671875 1.484375 -4.234375 C 1.390625 -3.796875 1.34375 -3.34375 1.34375 -2.90625 C 1.34375 -1.484375 2.046875 -0.328125 3.125 0.078125 C 3.5 0.203125 3.9375 0.28125 4.40625 0.28125 C 5.671875 0.28125 6.78125 -0.1875 7.5625 -1.046875 C 8.03125 -1.5625 8.40625 -2.21875 8.8125 -3.1875 L 7.640625 -3.1875 C 7.34375 -2.515625 7.15625 -2.140625 6.9375 -1.84375 C 6.4375 -1.140625 5.515625 -0.703125 4.578125 -0.703125 C 3.859375 -0.703125 3.140625 -1.09375 2.828125 -1.6875 C 2.609375 -2.09375 2.5 -2.578125 2.5 -3.125 C 2.5 -5.078125 3.59375 -7.09375 5 -7.6875 C 5.359375 -7.84375 5.765625 -7.921875 6.1875 -7.921875 C 7.390625 -7.921875 7.984375 -7.328125 8.09375 -6.03125 Z M 9.234375 -6.03125 "/>
</g>
<g id="glyph-0-3">
<path d="M 1.0625 0 L 4.453125 0 C 5.75 0 6.84375 -0.546875 7.71875 -1.609375 C 8.53125 -2.609375 9.109375 -4.359375 9.109375 -5.859375 C 9.109375 -6.734375 8.75 -7.625 8.1875 -8.125 C 7.734375 -8.53125 7.09375 -8.75 6.3125 -8.75 L 2.921875 -8.75 Z M 2.40625 -0.984375 L 3.859375 -7.765625 L 5.90625 -7.765625 C 6.734375 -7.765625 7.375 -7.453125 7.6875 -6.890625 C 7.859375 -6.546875 7.953125 -6.1875 7.953125 -5.765625 C 7.953125 -4.65625 7.578125 -3.21875 7.09375 -2.453125 C 6.484375 -1.5 5.5625 -0.984375 4.46875 -0.984375 Z M 2.40625 -0.984375 "/>
</g>
</g>
</defs>
<rect x="-21.6" y="-21.6" width="259.2" height="259.2" fill="rgb(100%, 100%, 100%)" fill-opacity="1"/>
<path fill="none" stroke-width="0.75" stroke-linecap="round" stroke-linejoin="round" stroke="rgb(0%, 0%, 0%)" stroke-opacity="1" stroke-miterlimit="10" d="M 190.222656 182 L 190.222656 182 "/>
<path fill="none" stroke-width="0.75" stroke-linecap="round" stroke-linejoin="round" stroke="rgb(0%, 0%, 0%)" stroke-opacity="1" stroke-miterlimit="10" d="M 190.222656 132.667969 L 190.222656 132.667969 "/>
<path fill="none" stroke-width="0.75" stroke-linecap="round" stroke-linejoin="round" stroke="rgb(0%, 0%, 0%)" stroke-opacity="1" stroke-miterlimit="10" d="M 108 132.667969 L 108 132.667969 "/>
<path fill="none" stroke-width="0.75" stroke-linecap="round" stroke-linejoin="round" stroke="rgb(0%, 0%, 0%)" stroke-opacity="1" stroke-miterlimit="10" d="M 190.222656 34 L 190.222656 34 "/>
<path fill="none" stroke-width="0.75" stroke-linecap="round" stroke-linejoin="round" stroke="rgb(0%, 0%, 0%)" stroke-opacity="1" stroke-miterlimit="10" d="M 190.222656 83.332031 L 190.222656 83.332031 "/>
<path fill="none" stroke-width="0.75" stroke-linecap="round" stroke-linejoin="round" stroke="rgb(0%, 0%, 0%)" stroke-opacity="1" stroke-miterlimit="10" d="M 149.109375 83.332031 L 149.109375 83.332031 "/>
<path fill="none" stroke-width="0.75" stroke-linecap="round" stroke-linejoin="round" stroke="rgb(0%, 0%, 0%)" stroke-opacity="1" stroke-miterlimit="10" d="M 108 58.667969 L 108 34 "/>
<path fill="none" stroke-width="0.75" stroke-linecap="round" stroke-linejoin="round" stroke="rgb(0%, 0%, 0%)" stroke-opacity="1" stroke-miterlimit="10" d="M 66.890625 132.667969 L 66.890625 58.667969 "/>
<path fill="none" stroke-width="0.75" stroke-linecap="round" stroke-linejoin="round" stroke="rgb(0%, 0%, 0%)" stroke-opacity="1" stroke-miterlimit="10" d="M 25.777344 182 L 25.777344 83.332031 "/>
<path fill="none" stroke-width="0.75" stroke-linecap="round" stroke-linejoin="round" stroke="rgb(0%, 0%, 0%)" stroke-opacity="1" stroke-miterlimit="10" d="M 25.777344 182 L 190.222656 182 "/>
<path fill="none" stroke-width="0.75" stroke-linecap="round" stroke-linejoin="round" stroke="rgb(0%, 0%, 0%)" stroke-opacity="1" stroke-miterlimit="10" d="M 108 132.667969 L 190.222656 132.667969 "/>
<path fill="none" stroke-width="0.75" stroke-linecap="round" stroke-linejoin="round" stroke="rgb(0%, 74.901961%, 100%)" stroke-opacity="1" stroke-miterlimit="10" d="M 108 132.667969 L 108 132.667969 "/>
<path fill="none" stroke-width="0.75" stroke-linecap="round" stroke-linejoin="round" stroke="rgb(0%, 0%, 0%)" stroke-opacity="1" stroke-miterlimit="10" d="M 66.890625 132.667969 L 108 132.667969 "/>
<path fill="none" stroke-width="0.75" stroke-linecap="round" stroke-linejoin="round" stroke="rgb(0%, 0%, 0%)" stroke-opacity="1" stroke-miterlimit="10" d="M 108 34 L 190.222656 34 "/>
<path fill="none" stroke-width="0.75" stroke-linecap="round" stroke-linejoin="round" stroke="rgb(0%, 0%, 0%)" stroke-opacity="1" stroke-miterlimit="10" d="M 149.109375 83.332031 L 190.222656 83.332031 "/>
<path fill="none" stroke-width="0.75" stroke-linecap="round" stroke-linejoin="round" stroke="rgb(0%, 40.784314%, 54.509804%)" stroke-opacity="1" stroke-miterlimit="10" d="M 108 58.667969 L 108.101562 61.070312 "/>
<path fill="none" stroke-width="0.75" stroke-linecap="round" stroke-linejoin="round" stroke="rgb(0%, 40.784314%, 54.509804%)" stroke-opacity="1" stroke-miterlimit="10" d="M 108.101562 61.070312 L 108.410156 63.351562 "/>
<path fill="none" stroke-width="0.75" stroke-linecap="round" stroke-linejoin="round" stroke="rgb(0%, 40.784314%, 54.509804%)" stroke-opacity="1" stroke-miterlimit="10" d="M 108.410156 63.351562 L 108.925781 65.511719 "/>
<path fill="none" stroke-width="0.75" stroke-linecap="round" stroke-linejoin="round" stroke="rgb(0%, 40.784314%, 54.509804%)" stroke-opacity="1" stroke-miterlimit="10" d="M 108.925781 65.511719 L 109.644531 67.546875 "/>
<path fill="none" stroke-width="0.75" stroke-linecap="round" stroke-linejoin="round" stroke="rgb(0%, 40.784314%, 54.509804%)" stroke-opacity="1" stroke-miterlimit="10" d="M 109.644531 67.546875 L 110.570312 69.457031 "/>
<path fill="none" stroke-width="0.75" stroke-linecap="round" stroke-linejoin="round" stroke="rgb(0%, 40.784314%, 54.509804%)" stroke-opacity="1" stroke-miterlimit="10" d="M 110.570312 69.457031 L 111.699219 71.246094 "/>
<path fill="none" stroke-width="0.75" stroke-linecap="round" stroke-linejoin="round" stroke="rgb(0%, 40.784314%, 54.509804%)" stroke-opacity="1" stroke-miterlimit="10" d="M 111.699219 71.246094 L 113.035156 72.910156 "/>
<path fill="none" stroke-width="0.75" stroke-linecap="round" stroke-linejoin="round" stroke="rgb(0%, 40.784314%, 54.509804%)" stroke-opacity="1" stroke-miterlimit="10" d="M 113.035156 72.910156 L 114.578125 74.453125 "/>
<path fill="none" stroke-width="0.75" stroke-linecap="round" stroke-linejoin="round" stroke="rgb(0%, 40.784314%, 54.509804%)" stroke-opacity="1" stroke-miterlimit="10" d="M 114.578125 74.453125 L 116.324219 75.871094 "/>
<path fill="none" stroke-width="0.75" stroke-linecap="round" stroke-linejoin="round" stroke="rgb(0%, 40.784314%, 54.509804%)" stroke-opacity="1" stroke-miterlimit="10" d="M 116.324219 75.871094 L 118.277344 77.167969 "/>
<path fill="none" stroke-width="0.75" stroke-linecap="round" stroke-linejoin="round" stroke="rgb(0%, 40.784314%, 54.509804%)" stroke-opacity="1" stroke-miterlimit="10" d="M 118.277344 77.167969 L 120.4375 78.339844 "/>
<path fill="none" stroke-width="0.75" stroke-linecap="round" stroke-linejoin="round" stroke="rgb(0%, 40.784314%, 54.509804%)" stroke-opacity="1" stroke-miterlimit="10" d="M 120.4375 78.339844 L 122.800781 79.386719 "/>
<path fill="none" stroke-width="0.75" stroke-linecap="round" stroke-linejoin="round" stroke="rgb(0%, 40.784314%, 54.509804%)" stroke-opacity="1" stroke-miterlimit="10" d="M 122.800781 79.386719 L 125.371094 80.3125 "/>
<path fill="none" stroke-width="0.75" stroke-linecap="round" stroke-linejoin="round" stroke="rgb(0%, 40.784314%, 54.509804%)" stroke-opacity="1" stroke-miterlimit="10" d="M 125.371094 80.3125 L 128.144531 81.113281 "/>
<path fill="none" stroke-width="0.75" stroke-linecap="round" stroke-linejoin="round" stroke="rgb(0%, 40.784314%, 54.509804%)" stroke-opacity="1" stroke-miterlimit="10" d="M 128.144531 81.113281 L 131.125 81.792969 "/>
<path fill="none" stroke-width="0.75" stroke-linecap="round" stroke-linejoin="round" stroke="rgb(0%, 40.784314%, 54.509804%)" stroke-opacity="1" stroke-miterlimit="10" d="M 131.125 81.792969 L 134.3125 82.347656 "/>
<path fill="none" stroke-width="0.75" stroke-linecap="round" stroke-linejoin="round" stroke="rgb(0%, 40.784314%, 54.509804%)" stroke-opacity="1" stroke-miterlimit="10" d="M 134.3125 82.347656 L 137.703125 82.777344 "/>
<path fill="none" stroke-width="0.75" stroke-linecap="round" stroke-linejoin="round" stroke="rgb(0%, 40.784314%, 54.509804%)" stroke-opacity="1" stroke-miterlimit="10" d="M 137.703125 82.777344 L 141.300781 83.085938 "/>
<path fill="none" stroke-width="0.75" stroke-linecap="round" stroke-linejoin="round" stroke="rgb(0%, 40.784314%, 54.509804%)" stroke-opacity="1" stroke-miterlimit="10" d="M 141.300781 83.085938 L 145.101562 83.273438 "/>
<path fill="none" stroke-width="0.75" stroke-linecap="round" stroke-linejoin="round" stroke="rgb(0%, 40.784314%, 54.509804%)" stroke-opacity="1" stroke-miterlimit="10" d="M 145.101562 83.273438 L 149.109375 83.332031 "/>
<path fill="none" stroke-width="0.75" stroke-linecap="round" stroke-linejoin="round" stroke="rgb(0%, 40.784314%, 54.509804%)" stroke-opacity="1" stroke-miterlimit="10" d="M 142.308594 85.691406 L 149.109375 83.332031 L 142.382812 80.765625 "/>
<path fill="none" stroke-width="0.75" stroke-linecap="round" stroke-linejoin="round" stroke="rgb(0%, 0%, 0%)" stroke-opacity="1" stroke-miterlimit="10" d="M 66.890625 58.667969 L 108 58.667969 "/>
<path fill="none" stroke-width="0.75" stroke-linecap="round" stroke-linejoin="round" stroke="rgb(0%, 0%, 0%)" stroke-opacity="1" stroke-miterlimit="10" d="M 25.777344 83.332031 L 66.890625 83.332031 "/>
<path fill="none" stroke-width="0.75" stroke-linecap="round" stroke-linejoin="round" stroke="rgb(0%, 74.901961%, 100%)" stroke-opacity="1" stroke-miterlimit="10" d="M 108 132.667969 L 108.101562 127.855469 "/>
<path fill="none" stroke-width="0.75" stroke-linecap="round" stroke-linejoin="round" stroke="rgb(0%, 74.901961%, 100%)" stroke-opacity="1" stroke-miterlimit="10" d="M 108.101562 127.855469 L 108.410156 123.292969 "/>
<path fill="none" stroke-width="0.75" stroke-linecap="round" stroke-linejoin="round" stroke="rgb(0%, 74.901961%, 100%)" stroke-opacity="1" stroke-miterlimit="10" d="M 108.410156 123.292969 L 108.925781 118.976562 "/>
<path fill="none" stroke-width="0.75" stroke-linecap="round" stroke-linejoin="round" stroke="rgb(0%, 74.901961%, 100%)" stroke-opacity="1" stroke-miterlimit="10" d="M 108.925781 118.976562 L 109.644531 114.90625 "/>
<path fill="none" stroke-width="0.75" stroke-linecap="round" stroke-linejoin="round" stroke="rgb(0%, 74.901961%, 100%)" stroke-opacity="1" stroke-miterlimit="10" d="M 109.644531 114.90625 L 110.570312 111.082031 "/>
<path fill="none" stroke-width="0.75" stroke-linecap="round" stroke-linejoin="round" stroke="rgb(0%, 74.901961%, 100%)" stroke-opacity="1" stroke-miterlimit="10" d="M 110.570312 111.082031 L 111.699219 107.507812 "/>
<path fill="none" stroke-width="0.75" stroke-linecap="round" stroke-linejoin="round" stroke="rgb(0%, 74.901961%, 100%)" stroke-opacity="1" stroke-miterlimit="10" d="M 111.699219 107.507812 L 113.035156 104.175781 "/>
<path fill="none" stroke-width="0.75" stroke-linecap="round" stroke-linejoin="round" stroke="rgb(0%, 74.901961%, 100%)" stroke-opacity="1" stroke-miterlimit="10" d="M 113.035156 104.175781 L 114.578125 101.09375 "/>
<path fill="none" stroke-width="0.75" stroke-linecap="round" stroke-linejoin="round" stroke="rgb(0%, 74.901961%, 100%)" stroke-opacity="1" stroke-miterlimit="10" d="M 114.578125 101.09375 L 116.324219 98.257812 "/>
<path fill="none" stroke-width="0.75" stroke-linecap="round" stroke-linejoin="round" stroke="rgb(0%, 74.901961%, 100%)" stroke-opacity="1" stroke-miterlimit="10" d="M 116.324219 98.257812 L 118.277344 95.667969 "/>
<path fill="none" stroke-width="0.75" stroke-linecap="round" stroke-linejoin="round" stroke="rgb(0%, 74.901961%, 100%)" stroke-opacity="1" stroke-miterlimit="10" d="M 118.277344 95.667969 L 120.4375 93.324219 "/>
<path fill="none" stroke-width="0.75" stroke-linecap="round" stroke-linejoin="round" stroke="rgb(0%, 74.901961%, 100%)" stroke-opacity="1" stroke-miterlimit="10" d="M 120.4375 93.324219 L 122.800781 91.226562 "/>
<path fill="none" stroke-width="0.75" stroke-linecap="round" stroke-linejoin="round" stroke="rgb(0%, 74.901961%, 100%)" stroke-opacity="1" stroke-miterlimit="10" d="M 122.800781 91.226562 L 125.371094 89.375 "/>
<path fill="none" stroke-width="0.75" stroke-linecap="round" stroke-linejoin="round" stroke="rgb(0%, 74.901961%, 100%)" stroke-opacity="1" stroke-miterlimit="10" d="M 125.371094 89.375 L 128.144531 87.773438 "/>
<path fill="none" stroke-width="0.75" stroke-linecap="round" stroke-linejoin="round" stroke="rgb(0%, 74.901961%, 100%)" stroke-opacity="1" stroke-miterlimit="10" d="M 128.144531 87.773438 L 131.125 86.417969 "/>
<path fill="none" stroke-width="0.75" stroke-linecap="round" stroke-linejoin="round" stroke="rgb(0%, 74.901961%, 100%)" stroke-opacity="1" stroke-miterlimit="10" d="M 131.125 86.417969 L 134.3125 85.308594 "/>
<path fill="none" stroke-width="0.75" stroke-linecap="round" stroke-linejoin="round" stroke="rgb(0%, 74.901961%, 100%)" stroke-opacity="1" stroke-miterlimit="10" d="M 134.3125 85.308594 L 137.703125 84.441406 "/>
<path fill="none" stroke-width="0.75" stroke-linecap="round" stroke-linejoin="round" stroke="rgb(0%, 74.901961%, 100%)" stroke-opacity="1" stroke-miterlimit="10" d="M 137.703125 84.441406 L 141.300781 83.828125 "/>
<path fill="none" stroke-width="0.75" stroke-linecap="round" stroke-linejoin="round" stroke="rgb(0%, 74.901961%, 100%)" stroke-opacity="1" stroke-miterlimit="10" d="M 141.300781 83.828125 L 145.101562 83.457031 "/>
<path fill="none" stroke-width="0.75" stroke-linecap="round" stroke-linejoin="round" stroke="rgb(0%, 74.901961%, 100%)" stroke-opacity="1" stroke-miterlimit="10" d="M 145.101562 83.457031 L 149.109375 83.332031 "/>
<path fill="none" stroke-width="0.75" stroke-linecap="round" stroke-linejoin="round" stroke="rgb(0%, 74.901961%, 100%)" stroke-opacity="1" stroke-miterlimit="10" d="M 142.425781 86.003906 L 149.109375 83.332031 L 142.273438 81.078125 "/>
<g fill="rgb(0%, 0%, 0%)" fill-opacity="1">
<use xlink:href="#glyph-0-0" x="190.222656" y="186.299805"/>
</g>
<g fill="rgb(0%, 0%, 0%)" fill-opacity="1">
<use xlink:href="#glyph-0-1" x="190.222656" y="136.967773"/>
</g>
<g fill="rgb(0%, 0%, 0%)" fill-opacity="1">
<use xlink:href="#glyph-0-2" x="190.222656" y="37.799805"/>
</g>
<g fill="rgb(0%, 0%, 0%)" fill-opacity="1">
<use xlink:href="#glyph-0-3" x="190.222656" y="87.631836"/>
</g>
</svg>
